<svg width="1700" height="138" viewBox="0 0 1700 138" fill="none" xmlns="http://www.w3.org/2000/svg">
<g clip-path="url(#clip0_246_554)">
<path d="M364.275 89.1794L426.822 72.4339C427.491 72.2547 427.915 73.1446 427.355 73.5541L399.327 94.0512C399.202 94.1437 399.05 94.1842 398.895 94.1669L364.376 90.4153C363.686 90.3405 363.606 89.3585 364.278 89.1786L364.275 89.1794Z" fill="#9CD8E7" stroke="#9CD8E7" stroke-width="4" stroke-miterlimit="10"/>
<path d="M379.03 72.1299L371.284 43.201C371.182 42.819 370.672 42.8253 370.605 43.2093L364.84 75.7551C364.792 76.0255 365.032 76.2653 365.281 76.1984L378.791 72.5815C378.976 72.532 379.083 72.3296 379.03 72.1299Z" fill="#9CD8E7" stroke="#9CD8E7" stroke-width="4" stroke-miterlimit="10"/>
<path d="M390.618 69.4119C390.36 69.481 390.091 69.3212 390.02 69.0562L376.756 19.5121C376.681 19.2319 376.865 18.9833 377.1 19.0511C381.775 20.3323 417.462 31.0539 420.918 60.5719C420.967 60.9798 420.709 61.359 420.32 61.4631L390.619 69.4149L390.618 69.4119Z" fill="#9CD8E7" stroke="#9CD8E7" stroke-width="4" stroke-miterlimit="10"/>
<g style="mix-blend-mode:plus-lighter">
<path d="M0 138L44.7368 97C70.0501 73.8011 108.897 73.8011 134.211 97V97C159.524 120.199 198.371 120.199 223.684 97V97C248.997 73.8011 287.845 73.8011 313.158 97V97C338.471 120.199 377.318 120.199 402.632 97V97C427.945 73.8011 466.792 73.8011 492.105 97V97C517.419 120.199 556.266 120.199 581.579 97V97C606.892 73.8011 645.739 73.8011 671.053 97V97C696.366 120.199 735.213 120.199 760.526 97V97C785.84 73.8011 824.687 73.8011 850 97V97C875.313 120.199 914.16 120.199 939.474 97V97C964.787 73.8011 1003.63 73.8011 1028.95 97V97C1054.26 120.199 1093.11 120.199 1118.42 97V97C1143.73 73.8011 1182.58 73.8011 1207.89 97V97C1233.21 120.199 1272.06 120.199 1297.37 97V97C1322.68 73.8011 1361.53 73.8011 1386.84 97V97C1412.16 120.199 1451 120.199 1476.32 97V97C1501.63 73.8011 1540.48 73.8011 1565.79 97V97C1591.1 120.199 1629.95 120.199 1655.26 97L1700 56" stroke="url(#paint0_linear_246_554)" stroke-width="15"/>
</g>
</g>
<defs>
<linearGradient id="paint0_linear_246_554" x1="850" y1="56" x2="850" y2="138" gradientUnits="userSpaceOnUse">
<stop stop-color="#21ABCD"/>
<stop offset="1" stop-color="#0F002E"/>
</linearGradient>
<clipPath id="clip0_246_554">
<rect width="1700" height="138" fill="white"/>
</clipPath>
</defs>
</svg>
