<svg width="1700" height="138" viewBox="0 0 1700 138" fill="none" xmlns="http://www.w3.org/2000/svg">
<g clip-path="url(#clip0_246_573)">
<path d="M1184.55 75.3367L1248.21 87.1489C1248.89 87.2753 1248.89 88.261 1248.21 88.3895L1214.09 94.8241C1213.93 94.8535 1213.78 94.8249 1213.65 94.7424L1184.11 76.4956C1183.52 76.1311 1183.87 75.2103 1184.55 75.3372L1184.55 75.3367Z" fill="#9CD8E7" stroke="#9CD8E7" stroke-width="4" stroke-miterlimit="10"/>
<path d="M1205.2 66.2999L1210.67 36.8547C1210.74 36.4659 1210.28 36.2519 1210.05 36.5696L1190.84 63.4634C1190.68 63.6867 1190.79 64.0063 1191.04 64.0534L1204.79 66.6048C1204.98 66.6398 1205.17 66.5032 1205.2 66.2999Z" fill="#9CD8E7" stroke="#9CD8E7" stroke-width="4" stroke-miterlimit="10"/>
<path d="M1216.83 68.8354C1216.57 68.7866 1216.4 68.5268 1216.45 68.257L1225.8 17.8287C1225.86 17.5435 1226.13 17.3987 1226.31 17.5608C1229.98 20.7299 1257.58 45.7703 1247.99 73.9008C1247.86 74.29 1247.46 74.5212 1247.06 74.4477L1216.83 68.8385L1216.83 68.8354Z" fill="#9CD8E7" stroke="#9CD8E7" stroke-width="4" stroke-miterlimit="10"/>
<g style="mix-blend-mode:plus-lighter">
<path d="M0 138L44.7368 97C70.0501 73.8011 108.897 73.8011 134.211 97V97C159.524 120.199 198.371 120.199 223.684 97V97C248.997 73.8011 287.845 73.8011 313.158 97V97C338.471 120.199 377.318 120.199 402.632 97V97C427.945 73.8011 466.792 73.8011 492.105 97V97C517.419 120.199 556.266 120.199 581.579 97V97C606.892 73.8011 645.739 73.8011 671.053 97V97C696.366 120.199 735.213 120.199 760.526 97V97C785.84 73.8011 824.687 73.8011 850 97V97C875.313 120.199 914.16 120.199 939.474 97V97C964.787 73.8011 1003.63 73.8011 1028.95 97V97C1054.26 120.199 1093.11 120.199 1118.42 97V97C1143.73 73.8011 1182.58 73.8011 1207.89 97V97C1233.21 120.199 1272.06 120.199 1297.37 97V97C1322.68 73.8011 1361.53 73.8011 1386.84 97V97C1412.16 120.199 1451 120.199 1476.32 97V97C1501.63 73.8011 1540.48 73.8011 1565.79 97V97C1591.1 120.199 1629.95 120.199 1655.26 97L1700 56" stroke="url(#paint0_linear_246_573)" stroke-width="15"/>
</g>
</g>
<defs>
<linearGradient id="paint0_linear_246_573" x1="850" y1="56" x2="850" y2="138" gradientUnits="userSpaceOnUse">
<stop stop-color="#21ABCD"/>
<stop offset="1" stop-color="#0F002E"/>
</linearGradient>
<clipPath id="clip0_246_573">
<rect width="1700" height="138" fill="white"/>
</clipPath>
</defs>
</svg>
