<svg width="47" height="55" viewBox="0 0 47 55" fill="none" xmlns="http://www.w3.org/2000/svg">
<path d="M2.40673 44H44.592C45.0432 44 45.1602 44.6315 44.7387 44.7948L23.6461 52.9722C23.5514 53.0093 23.4492 53.0093 23.3545 52.9722L2.26189 44.7948C1.84038 44.6315 1.95551 44 2.40859 44H2.40673Z" stroke="#9CD8E7" stroke-width="4" stroke-miterlimit="10"/>
<path d="M14.5652 35.756V16.2446C14.5652 15.9869 14.243 15.9049 14.1362 16.1353L5.02448 35.6467C4.94844 35.8087 5.05887 36 5.22724 36H14.3389C14.4638 36 14.5652 35.8907 14.5652 35.756Z" stroke="#9CD8E7" stroke-width="4" stroke-miterlimit="10"/>
<path d="M22.3163 35.9979C22.1421 35.9979 22 35.8521 22 35.6734V2.25778C22 2.0688 22.1581 1.94349 22.2943 2.02566C25.0208 3.61971 45.6737 16.3804 42.8751 35.5399C42.8371 35.8049 42.6108 36 42.3486 36H22.3163V35.9979Z" stroke="#9CD8E7" stroke-width="4" stroke-miterlimit="10"/>
</svg>
